# xmcd
#
# Track frame offsets: 
#        150
#        8924
#        28367
#        44900
#        58526
#        75673
#        97983
#        118233
#        137265
#        156676
#        175680
#        192642
#        216411
#        225913
#        245637
#        260117
#        270670
#        289542
#        301909
#        316361
#
# Disc length: 4483 seconds
#
# Revision: 0
# Processed by: cddbd v1.5.2PL0 Copyright (c) Steve Scherf et al.
# Submitted via: ExactAudioCopy v0.99pb5
#
DISCID=28118114
DTITLE=Jody Breeze - Stackin' Papuh
DYEAR=2008
DGENRE=Rap
TTITLE0=Intro
TTITLE1=Stackin Papuh Feat. Slim Thug
TTITLE2=Everywhere We Go Feat. 8 Ball
TTITLE3=Hustler
TTITLE4=Who Dat Feat. Jazze Pha and Juvenile
TTITLE5=AK and Chevy's Feat. Sean Paul and Trick Daddy
TTITLE6=Gangsta Feat. Young Jeezy
TTITLE7=Take A Walk
TTITLE8=Stay Down Feat. Young Jeezy and Big Zak
TTITLE9=Jody Breeze Feat. Keri
TTITLE10=Dem Boyz - Boyz N Da Hood
TTITLE11=Bury Yall - Boyz N Da Hood
TTITLE12=Hood Hop
TTITLE13=Free Style
TTITLE14=Yall Can't
TTITLE15=Fucked
TTITLE16=Take It Outside Feat. Lil Jon and Pastor Troy
TTITLE17=GA GA - Young Jeezy
TTITLE18=Air Force - Young Jeezy
TTITLE19=Stay Fresh Feat. Jazze Pha
EXTD=
EXTT0=
EXTT1=
EXTT2=
EXTT3=
EXTT4=
EXTT5=
EXTT6=
EXTT7=
EXTT8=
EXTT9=
EXTT10=
EXTT11=
EXTT12=
EXTT13=
EXTT14=
EXTT15=
EXTT16=
EXTT17=
EXTT18=
EXTT19=
PLAYORDER=
